<?xml version="1.0" encoding="UTF-8"?>
<svg id="BACKGROUND_1" data-name="BACKGROUND 1" xmlns="http://www.w3.org/2000/svg" width="500.000019779419745" height="500" xmlns:xlink="http://www.w3.org/1999/xlink" viewBox="0 0 500.000019779419745 500">
  <defs>
    <clipPath id="clippath">
      <rect y="-17.155499999998938" width="500.000019779419745" height="536.399999999999636" fill="none"/>
    </clipPath>
  </defs>
  <g clip-path="url(#clippath)">
    <g>
      <path d="M454.870119779419838,46.584482880001815c-65.399999999999636-67.667503680002483-198.610699999999269-13.227516720002313-225.736799999998766,11.299587839997912,0,0,98.63799999999901-24.446108159996584,147.244699999999284,13.418904240001211,0,0-137.82510000000002-34.996130640000047-245.798399999999674,67.105785599998853C22.606299428916827,240.510676799998691,4.509399886082974,332.931216720000521,15.136799617612269,384.280037759999686c0,0,32.771699172117223-111.44621879999977,84.081397875925177-149.023398960000122,0,0-128.66479674965376,183.413612160000412-9.862299750857346,234.984717360001014,118.802496998796414,51.571105199998783,205.50172203674083-39.124586879997878,205.50172203674083-39.124586879997878,0,0-86.844725034268777,25.757177039997259-160.07222318438653-4.024716480002098,0,0,137.022923184385945,24.078888719999668,254.278023184386257-78.95078495999951,121.237900000000081-106.529254560000481,105.524900000000343-238.120726320001268,105.524900000000343-238.120726320001268,0,0-28.484800000000178,105.036989760001234-80.45260000000053,149.42677175999961,0,0,98.253000000000611-153.349894080001832,40.734399999999368-212.86283039999762Z" fill="#351738"/>
      <path d="M402.526519779419687,99.070471920000273c-48.415599999998449-50.094288719998076-147.031399999999849-9.792303840000386-167.11279999999897,8.365050719999999,0,0,73.021699999999328-18.097385039998699,109.005199999999604,9.934020720000262,0,0-102.031800000000658-25.907690879997972-181.96442388336618,49.678364160001365-79.932497980735207,75.585947759996998-93.329597642295994,144.004733279998618-85.462097841045761,182.018221199998152,0,0,24.260799387120642-82.503469439998298,62.245298427551461-110.32181712000056,0,0-95.250397593772504,135.78086304000135-7.301076703139188,173.958918480000648,87.949399999999514,38.178055439999298,152.132799999999406-28.963883520000309,152.132799999999406-28.963883520000309,0,0-64.29110000000037,19.068054480001592-118.50132396202207-2.979487439999502,0,0,101.437923962022978,17.825644800001101,188.241723962022661-58.447109520002414,89.752300000000105-78.863566319998426,78.119999999998981-176.28067223999642,78.119999999998981-176.28067223999642,0,0-21.087299999999232,77.758796879998044-59.558999999999287,110.620484639997812,0,0,72.736699999999473-113.524768799999947,30.155699999999342-157.582090079999034Z" fill="#4c2042"/>
      <path d="M364.2863197794195,137.414596800002982c-36.007399999998597-37.255876560004253-109.349499999998443-7.282702800001061-124.284399999998641,6.221167199995762,0,0,54.307399999999689-13.459241519996795,81.068899999998393,7.388159040003302,0,0-75.882599999999002-19.267917120001584-135.329724471634108,36.946588319997318-59.447098498239939,56.21439816000202-69.410698246538232,107.098589519999223-63.55959839434945,135.369766080000772,0,0,18.043122865983605-61.359117840000181,46.292798830545507-82.048065840001073,0,0-70.839198210451286,100.98244944000362-5.429899862829188,129.376032480004142,65.409423898268869,28.393583039996884,113.143523898268541-21.540965760003019,113.143523898268541-21.540965760003019,0,0-47.81420000000071,14.1812359200012-88.131224530132386-2.215868400000545,0,0,75.440924530132179,13.257233279999127,139.998324530131868-43.468032239998138,66.750200000000405-58.6521216000001,58.099099999999453-131.102704079999967,58.099099999999453-131.102704079999967,0,0-15.682999999999083,57.83046407999791-44.295000000000073,82.27024271999835,0,0,54.095400000000154-84.430110959998274,22.427200000000084-117.196319519996905Z" fill="#562856"/>
      <path d="M278.405619779419794,284.151644400000805c-29.975500000000466,26.118496080000114-66.369925135892117,31.316748479997841-81.289124759001425,11.610592559998622s-2.713699931446172-56.854323359997579,27.261824759001684-82.972819439999512c29.975500000000466-26.118496079998295,66.369800000000396-31.316748479997841,81.289099999999962-11.610592559998622,14.919200000000274,19.706155920001038,2.713700000000244,56.854323359999398-27.261800000000221,82.972819439999512Z" fill="#7d3d74"/>
      <path d="M274.212519779419381,278.61320712000088c-25.322699999998804,22.064384879999125-56.067900000000009,26.455784399999175-68.671424971824308,9.808395839998411-12.603399681611336-16.647388559998944-2.292399942089105-48.029363280000325,23.030324971825394-70.09374815999945,25.322599999999511-22.064384879997306,56.067900000000009-26.455784399999175,68.671299999999974-9.80839584000023,12.603499999999258,16.647388560002582,2.292499999999563,48.029363280000325-23.030200000001059,70.093748160001269Z" fill="#ffdf68"/>
      <path d="M270.348919779420612,273.510004800000388c-21.035499999999956,18.328788000000714-46.575399999999718,21.976737119999598-57.045125167927836,8.147808719997556-10.469699735513132-13.828928399998404-1.904399951890809-39.897968399996898,19.131125167927166-58.226756399997612,21.035499999999956-18.328787999998895,46.575500000000829-21.976737119999598,57.045200000000477-8.147808720003013,10.469600000000355,13.828928400002042,1.904300000000148,39.897968400004174-19.131199999999808,58.226756400003069Z" fill="#fcba30"/>
      <path d="M264.925119779420129,266.345846399999573c-15.016999999999825,13.084727039999052-33.249599999999191,15.688841759998468-40.723700000000463,5.816614320001463-7.474225254409248-9.872227440000643-1.359499999998661-28.482518160002655,13.657400000000052-41.567245200001707,15.016900000000533-13.084727039999052,33.24960000000101-15.688841760000287,40.723700000000463-5.816614319997825,7.474099999999453,9.872334719999344,1.35950000000048,28.482518159999017-13.657400000000052,41.567245199998069Z" fill="#f79731"/>
      <path d="M259.214919779420597,258.803525999999692c-8.680700000000797,7.563776400000279-19.220300000000861,9.06912936000117-23.540800000000672,3.362369760001457s-.785899999998946-16.464690720002181,7.894900000001144-24.02835984000194c8.680699999998978-7.56377639999846,19.22019999999975-9.069129359997532,23.540699999999561-3.362369759997819,4.320599999999104,5.706759599999714.785899999998946,16.464690719998543-7.894800000000032,24.028359839998302Z" fill="#f47f31"/>
    </g>
    <polygon points="121.043196942191571 311.935233360001803 122.898396895325277 318.648601200000485 129.156096737242478 320.638859760001651 122.898396895325277 322.629118320000998 121.043196942191571 329.34248615999968 119.187896989060391 322.629118320000998 112.93019714714319 320.638859760001651 119.187896989060391 318.648601200000485 121.043196942191571 311.935233360001803" fill="#fff"/>
    <polygon points="88.8877977545053 212.666474640001979 90.514397713413928 218.552284560000771 96.000797574815806 220.297301040001912 90.514397713413928 222.042210240000713 88.8877977545053 227.928127439998207 87.261297795594146 222.042210240000713 81.774797934194794 220.297301040001912 87.261297795594146 218.552284560000771 88.8877977545053 212.666474640001979" fill="#fff"/>
    <polygon points="267.453819779420883 68.304069840000011 268.699319779419966 72.810795359999247 272.900219779419785 74.146860480001124 268.699319779419966 75.482925599999362 267.453819779420883 79.989651120002236 266.208419779421092 75.482925599999362 262.007519779421273 74.146860480001124 266.208419779421092 72.810795359999247 267.453819779420883 68.304069840000011" fill="#fff"/>
    <polygon points="480.120519779420647 23.435068079999837 481.365919779420437 27.941793600000892 485.566819779420257 29.27785872000095 481.365919779420437 30.613923840001007 480.120519779420647 35.120649360002062 478.875119779420857 30.613923840001007 474.674219779421037 29.27785872000095 478.875119779420857 27.941793600000892 480.120519779420647 23.435068079999837" fill="#fff"/>
    <polygon points="239.709819779420286 148.154504880001696 241.565019779420254 154.867765439999857 247.82281977941966 156.858023999999205 241.565019779420254 158.84828256000219 239.709819779420286 165.561650399999053 237.854619779420318 158.84828256000219 231.596819779420912 156.858023999999205 237.854619779420318 154.867765439999857 239.709819779420286 148.154504880001696" fill="#fff"/>
    <polygon points="52.177398681888008 442.245674640000288 54.032619779420202 448.95904248000079 60.290398476936389 450.949301040000137 54.032619779420202 452.939559599999484 52.177398681888008 459.652927439999985 50.322198728754302 452.939559599999484 44.064398886839626 450.949301040000137 50.322198728754302 448.95904248000079 52.177398681888008 442.245674640000288" fill="#fff"/>
    <polygon points="481.032619779420202 213.705159600000115 482.88781977942017 220.418527439998797 489.145619779419576 222.408785999999964 482.88781977942017 224.399044559999311 481.032619779420202 231.112305119999291 479.177419779420234 224.399044559999311 472.919619779420827 222.408785999999964 479.177419779420234 220.418527439998797 481.032619779420202 213.705159600000115" fill="#fff"/>
    <polygon points="442.177419779420234 465.536591760001102 444.032619779420202 472.249959600001603 450.290419779419608 474.24021816000095 444.032619779420202 476.230476720000297 442.177419779420234 482.943844560000798 440.322219779420266 476.230476720000297 434.064419779420859 474.24021816000095 440.322219779420266 472.249959600001603 442.177419779420234 465.536591760001102" fill="#fff"/>
    <polygon points="343.221119779420405 247.043063279999842 345.076419779419666 253.756323839999823 351.33411977941978 255.74658239999917 345.076419779419666 257.736948239999037 343.221119779420405 264.450208799999018 341.365919779420437 257.736948239999037 335.108219779420324 255.74658239999917 341.365919779420437 253.756323839999823 343.221119779420405 247.043063279999842" fill="#b073af"/>
    <polygon points="224.177419779420234 31.767827520001447 226.032619779420202 38.481195360001948 232.290419779419608 40.471453920001295 226.032619779420202 42.461712480000642 224.177419779420234 49.175080320001143 222.322219779420266 42.461712480000642 216.064394541754154 40.471453920001295 222.322219779420266 38.481195360001948 224.177419779420234 31.767827520001447" fill="#b073af"/>
    <polygon points="316.91971977942012 409.491052320003291 320.032619779420202 420.755559600000197 330.532719779419494 424.095078719999947 320.032619779420202 427.434597839999697 316.91971977942012 438.699105119998421 313.806819779420039 427.434597839999697 303.306719779420746 424.095078719999947 313.806819779420039 420.755559600000197 316.91971977942012 409.491052320003291" fill="#b073af"/>
    <polygon points="259.510719779420469 366.48142752000058 260.908619779420405 371.539786800000002 265.623719779419844 373.039453920000597 260.908619779420405 374.539121040001191 259.510719779420469 379.597480320002433 258.112919779419826 374.539121040001191 253.397819779420388 373.039453920000597 258.112919779419826 371.539786800000002 259.510719779420469 366.48142752000058" fill="#fbb657"/>
    <polygon points="48.930498763911601 27.628643280000688 51.114619779420536 35.532390000000305 58.481998522620415 37.875599759998295 51.114619779420536 40.218702239999402 48.930498763911601 48.122448959999019 46.746298819089134 40.218702239999402 39.378899005205312 37.875599759998295 46.746298819089134 35.532390000000305 48.930498763911601 27.628643280000688" fill="#fbb657"/>
    <polygon points="459.634719779420266 183.118773360001796 461.032619779420202 188.1771326399994 465.74771977941964 189.676692480001293 461.032619779420202 191.176359600001888 459.634719779420266 196.234718879999491 458.236919779419623 191.176359600001888 453.521819779420184 189.676692480001293 458.236919779419623 188.1771326399994 459.634719779420266 183.118773360001796" fill="#fbb657"/>
    <polygon points="115.301397087241639 469.55637335999927 117.766397024970502 478.476276240000516 126.080996814926038 481.120728240000972 117.766397024970502 483.765180239999609 115.301397087241639 492.685083120000854 112.836397149512777 483.765180239999609 104.52179735955724 481.120728240000972 112.836397149512777 478.476276240000516 115.301397087241639 469.55637335999927" fill="#ee62a3"/>
    <polygon points="468.497619779420347 438.655656720000479 470.962619779420493 447.575559600001725 479.277219779420193 450.220011600000362 470.962619779420493 452.864463599998999 468.497619779420347 461.784366480000244 466.032619779420202 452.864463599998999 457.718019779420501 450.220011600000362 466.032619779420202 447.575559600001725 468.497619779420347 438.655656720000479" fill="#ee62a3"/>
    <polygon points="71.567619779420056 186.622645440000269 74.032619779420202 195.542655600000217 82.347197919734754 198.187107600000672 74.032619779420202 200.831559600001128 71.567619779420056 209.751462480000555 69.102619779419911 200.831559600001128 60.787998464365955 198.187107600000672 69.102619779419911 195.542655600000217 71.567619779420056 186.622645440000269" fill="#fbb657"/>
    <polygon points="429.919619779420827 18.334333200000401 431.774819779420795 25.047701039999083 438.032619779420202 27.03795959999843 431.774819779420795 29.028218160001416 429.919619779420827 35.741585999998279 428.064419779420859 29.028218160001416 421.806719779420746 27.03795959999843 428.064419779420859 25.047701039999083 429.919619779420827 18.334333200000401" fill="#ee62a3"/>
    <polygon points="24.242999387570308 4.543274640001982 25.493399355982547 9.068130480000036 29.711199249431957 10.409559599998829 25.493399355982547 11.750988720003079 24.242999387570308 16.275844559999314 22.992619779419329 11.750988720003079 18.774799525708659 10.409559599998829 22.992619779419329 9.068130480000036 24.242999387570308 4.543274640001982" fill="#ee62a3"/>
    <g>
      <path d="M169.365895721457491,279.320504160003111c-1.939599951001583,0-1.939599951001583,3.226767839996683,0,3.226767839996683s1.939599951001583-3.226767839996683,0-3.226767839996683Z" fill="#fff"/>
      <path d="M136.032619779420202,299.932746960001168c-1.234323184711684,0-1.234323184711684,2.053446480000275,0,2.053446480000275,1.234276752926235,0,1.234276752926235-2.053446480000275,0-2.053446480000275Z" fill="#fff"/>
      <path d="M160.699295940394222,306.222895199998675c-1.410676160974617,0-1.410676160974617,2.346750000000611,0,2.346750000000611,1.410599964365247,0,1.410599964365247-2.346750000000611,0-2.346750000000611Z" fill="#fff"/>
      <path d="M145.444996325750253,338.780229600000894c-.120899996945809-.108567359999142-.241899993889092-.217242000000624-.362799990834901-.325916640000287-.955899975851935-.858776400000352-2.533999935985776-.355204080000476-2.533999935985776,1.12601087999974s1.578099960133841,1.984679999999571,2.533999935985776,1.12601087999974c.120899996945809-.108567360000961.241899993889092-.217242000000624.362799990834901-.325916639998468.41399998954148-.371939760001624.41399998954148-1.22824872000092,0-1.600188480000725Z" fill="#fff"/>
      <path d="M176.488295541530533,331.939413120000609c-.05649999857269-.058574880000378-.112899997147906-.117149760000757-.169399995720596-.175724639999316-.332199991607922-.344690640000408-.911999976960942-.382131360001949-1.239199968695175,0-.24289999386383.283433759997934-.421699989346962.611066879999271-.236599994022981.992447279999396.061799998438801.127234080000562.146524196328755.231724799999938.236599994022981.336966479999319.327199991734233.381916800000909.906999977087253.344476080003005,1.239199968695175,0,.05649999857269-.058574879998559.112899997147906-.117257039999458.169399995720596-.175939200000357.249399993699626-.258544799999072.249399993699626-.719097840001268,0-.977749919999042Z" fill="#fff"/>
      <path d="M196.650295032195572,318.335987280001063l.150599996195524.670714559999396c.135099996587087.601304400001027.994899974866712.601304400001027,1.129999971453799,0l.150724779574375-.670714559999396c.288275209335552-1.283283360000496-1.719724739938101-1.283283360000496-1.431324747223698,0Z" fill="#fff"/>
      <path d="M164.699295839345723,351.911945280002328c-1.511399961818825,0-1.511399961818825,2.514428639995458,0,2.514428639995458s1.511399961818825-2.514428639995458,0-2.514428639995458Z" fill="#fff"/>
      <path d="M163.224095876612409,332.580625680000594c-.377899990453443-.328920479998487-.717476097192048-.395541360001516-1.191476097192208-.442851840000003-1.208423842181219-.12058271999922-1.208423842181219,2.132082719999744,0,2.011499999998705.47400000000016-.047203199999785.813576106738765-.113824079999176,1.191476097192208-.442637280000781.29199999262346-.254253599996446.29199999262346-.871971839998878,0-1.126010879997921Z" fill="#fff"/>
      <path d="M124.206396862282418,342.251810400000977c-.166399995796382.102345119999882-.332699991595291.204904799998985-.499099987391673.307464479999908-.418199989435379.257686560000366-.418199989435379.936339839998254,0,1.19402639999862.166399995796382.102559680000923.332699991595291.205119360001845.499099987391673.307679040000949.640999983806978.395112239997616,1.469399962879834-.105992640001205,1.469399962879834-.904692239999349,0-.798592319997624-.828399979072856-1.299697200001901-1.469399962879834-.904477680000127Z" fill="#fff"/>
      <path d="M109.365897237184981,326.921820239998851c-1.460999963092036,0-1.460999963092036,2.430535679999593,0,2.430535679999593,1.461099963089509,0,1.461099963089509-2.430535679999593,0-2.430535679999593Z" fill="#fff"/>
      <path d="M116.699297051927715,291.9190382400011c-1.41067727250811,0-1.41067727250811,2.346750000000611,0,2.346750000000611,1.410599964365247,0,1.410599964365247-2.346750000000611,0-2.346750000000611Z" fill="#fff"/>
      <path d="M158.699295990918472,246.104148720000012c-.669799983079429,0-1.37689996521658.791511840001476-1.092399972403655,1.538502480001625.081599997938611.214238159996967.163199995877221.42847631999939.244899993813306.642714479998176.339999991410878.892784159999792,1.354899965772347.892784159999792,1.694999957180698,0,.081599997938611-.214238159998786.163199995877221-.428476320001209.244823809911395-.642714479998176.284476176717362-.746990640000149-.422623805419789-1.538502480001625-1.092323788501744-1.538502480001625Z" fill="#fff"/>
      <path d="M230.502019779420152,182.898956639999597c-.354999999999563.154483199999959-.654000000000451.333104400000593-.972100000000864.560323440002321-.530099999999948.378269279997767-.675899999998364,1.169459279997682-.201599999998507,1.678288319997591.474199999998746.508721760001208,1.211699999999837.352414800001497,1.564399999999296-.216276479999578.211699999999837-.341364959998828.378200000001016-.662132159999601.52219999999943-1.042868880000242.202800000000934-.536078159999306-.413299999998344-1.197030239998639-.912899999999354-.979466400000092Z" fill="#fff"/>
      <path d="M252.490219779419931,174.997355520001292c-.337199999999939.134850959999312-.601300000000265.492737039998246-.581099999999424.868967999998858-.30409999999938.068766479998885-.582099999999627.257150159999583-.752399999999398.569013119998999-.337800000001153.618898320000881-.098700000000463,1.303881120002188.413499999998749,1.691376480001054.893100000001141.675756720000209,2.325399999999718.008904239997719,2.557099999999991-1.131911279999258.211499999999432-1.040508719999707-.46730000000025-2.464865279998776-1.637099999999919-1.997446319999653Z" fill="#fff"/>
      <path d="M269.365919779420437,149.405496960000164c-1.637300000000323,0-1.637300000000323,2.72394648000045,0,2.72394648000045,1.637399999999616,0,1.637399999999616-2.72394648000045,0-2.72394648000045Z" fill="#fff"/>
      <path d="M291.365919779420437,171.57683999999972c-1.637300000000323,0-1.637300000000323,2.723839200001748,0,2.723839200001748,1.637399999999616,0,1.637399999999616-2.723839200001748,0-2.723839200001748Z" fill="#fff"/>
      <path d="M213.365894609923998,174.162395280001874c-1.108274830503433,0-1.108274830503433,1.843928639998921,0,1.843928639998921,1.108399971999461,0,1.108399971999461-1.843928639998921,0-1.843928639998921Z" fill="#fff"/>
      <path d="M219.76031977941966,150.04381296000065c-.166400000000067-.102452400000402-.332800000000134-.205119360000026-.499099999999089-.307464479998089-.730900000000474-.450576000001092-1.675199999999677.120689999997921-1.675199999999677,1.031175359998088,0,.910378079999646.944299999999203,1.481644080000478,1.675199999999677,1.031389920000947.166299999998955-.102666960001443.332699999999022-.205119360003664.499099999999089-.30767903999913.506900000000314-.3123993600002.506900000000314-1.134915120001097,0-1.447421760001816Z" fill="#fff"/>
      <path d="M240.699319779419966,128.560027439998521c-1.763300000000527,0-1.763300000000527,2.933464320001804,0,2.933464320001804,1.763199999999415,0,1.763199999999415-2.933464320001804,0-2.933464320001804Z" fill="#fff"/>
      <path d="M365.365919779420437,235.04089871999895c-1.86410000000069,0-1.86410000000069,3.101142960000288,0,3.101142960000288s1.86410000000069-3.101142960000288,0-3.101142960000288Z" fill="#fff"/>
      <path d="M373.365919779420437,263.858559600001172c-1.612100000000282,0-1.612100000000282,2.68199999999888,0,2.68199999999888,1.612299999998868,0,1.612299999998868-2.68199999999888,0-2.68199999999888Z" fill="#fff"/>
      <path d="M356.032619779420202,291.772922879999896c-.806599999999889,0-1.336499999999432.684446400000525-1.396499999998923,1.498165199998766-.013800000000629.18741816000329.007199999998193.350483760003044.029299999998329.536400000004505.094100000000253.793013759997848.550699999999779,1.466732159997264,1.367200000000594,1.466732159997264s1.273100000000341-.673718399999416,1.367200000000594-1.466732159997264c.022100000000137-.185916240001461.043099999998958-.348981840001215.029300000000148-.536400000004505-.06000000000131-.813718799998242-.589900000000853-1.498165199998766-1.396500000000742-1.498165199998766Z" fill="#fff"/>
      <path d="M321.365919779420437,286.406884559999526c-1.158699999999953,0-1.158699999999953,1.927714319999723,0,1.927714319999723,1.158799999999246,0,1.158799999999246-1.927714319999723,0-1.927714319999723Z" fill="#fff"/>
      <path d="M340.1571197794201,276.362901840000632l-.479400000000169.343725120001181c-.451999999999316.324092880000535-.451999999999316.978393599998526,0,1.302593759997762l.479400000000169.343832399999883c.690099999999802.494882640001379,1.616500000000087-.161670960002084,1.616500000000087-.995129279997855,0-.833458320001228-.926400000000285-1.489904640000532-1.616500000000087-.995022000000972Z" fill="#fff"/>
      <path d="M326.032619779420202,231.37835952000205c-.512500000000728,0-1.038699999999153.599051519997374-.828600000000733,1.167099119997147.120600000000195.32645304000107.215800000001764.628338960001201.428100000000995.899757360000876.186499999999796.238483439999982.61449999999968.238483439999982.800999999999476,0,.212300000001051-.271418399999675.3075000000008-.573304319999806.428100000000995-.899757360000876.210100000000239-.568047599999773-.316100000000006-1.167099119997147-.828600000000733-1.167099119997147Z" fill="#fff"/>
      <path d="M352.27751977941989,174.821630880000157c-.721499999999651-.773917919999803-1.840799999999945-.3526293599989-2.154599999999846.610315920002904-.090299999999843.277318799997374-.18080000000009.554744879997088-.271199999999226.8320636799981-.214700000000448.659235599998283.466800000000148,1.390241519999108,1.081299999999828,1.16001863999918.258499999999913-.096981120001146.517099999999118-.194069519999175.775599999999031-.29094336000162.897600000000239-.336644639995939,1.29030000000057-1.53742967999824.568900000000212-2.311454879998564Z" fill="#fff"/>
      <path d="M355.883119779420667,204.287155680000069c-.321400000000722-.225717119999899-.712800000001153-.225717119999899-1.034300000001167,0-.673999999999069.283111920001829-.855799999999363,1.233398160000434-.725899999999456,1.918380959999922.251299999999901,1.324693440001283,2.23489999999947,1.324693440001283,2.486100000000079,0,.129899999999907-.684982799999489-.05199999999968-1.635269039998093-.725899999999456-1.918380959999922Z" fill="#fff"/>
      <path d="M293.365919779420437,78.011300640000627c-1.486100000000079,0-1.486100000000079,2.472482160001164,0,2.472482160001164,1.486300000000483,0,1.486300000000483-2.472482160001164,0-2.472482160001164Z" fill="#fff"/>
      <path d="M304.032619779420202,62.468252399999983c-2.115999999999985,0-2.115999999999985,3.520178640001177,0,3.520178640001177s2.115999999999985-3.520178640001177,0-3.520178640001177Z" fill="#fff"/>
      <path d="M319.365919779420437,79.795045200000459c-.222200000000157-.013839120001649-.444400000000314-.0278928000007-.666600000000471-.04194648000157-.251899999999296-.015662879997763-.251899999999296.435127680002552,0,.419142960001409.222200000000157-.013946399998531.444400000000314-.0278928000007.666600000000471-.041946479997932.201399999999921-.01255176000268.201399999999921-.322590960002344,0-.335250000001906Z" fill="#fff"/>
      <path d="M344.699319779419966,81.440613120001217c-1.662500000000364,0-1.662500000000364,2.765892960000201,0,2.765892960000201s1.662500000000364-2.765892960000201,0-2.765892960000201Z" fill="#fff"/>
      <path d="M218.031619779419998,79.842462959999466l-.337299999999232-.503679599996758c-.529300000000148-.790224480000688-1.460825241938437-.790224480000688-1.990125228567194,0l-.337199991481612.503679599996758c-.702599982250831,1.049198400000023.246199993780465,2.490827040001022,1.332299966343271,2.490827040001022,1.086025253705884,0,2.034825253704184-1.441628640000999,1.332325253704767-2.490827040001022Z" fill="#fff"/>
      <path d="M244.654119779419489,58.555107119998866c-.116399999998976-.113394959998914-.232699999998658-.22711175999757-.34900000000016-.340721280001162-.840199999998731-.820370159997765-2.267399999998815-.278927999996085-2.267399999998815,1.007573760003652,0,1.286501759997918,1.427200000000084,1.827943920001417,2.267399999998815,1.007466479997674.116300000001502-.113502239999434.232600000001185-.227219039999909.34900000000016-.340721279999343.342400000001362-.334391759999562.342400000001362-.99920591999944,0-1.333597680000821Z" fill="#fff"/>
      <path d="M235.365919779420437,92.839113119998729c-.856400000000576,0-.856400000000576,1.424892959999852,0,1.424892959999852.856499999999869,0,.856499999999869-1.424892959999852,0-1.424892959999852Z" fill="#fff"/>
      <path d="M259.365919779420437,94.460972159999073c-1.486100000000079,0-1.486100000000079,2.472374880002462,0,2.472374880002462,1.486300000000483,0,1.486300000000483-2.472374880002462,0-2.472374880002462Z" fill="#fff"/>
      <path d="M278.614119779420434,93.91459512000074c-.269200000000637-.213272639999559-.539899999999761-.33889752000141-.869099999999889-.407556719997956-.899400000000242-.18731088000095-1.804900000000998.422683199998573-1.804900000000998,1.474885439996797,0,1.052094959999522.905500000000757,1.662303600000087,1.804900000000998,1.475100000001476.329200000000128-.068659200000184.599899999999252-.194605919998139.869099999999889-.407556720001594.735000000000582-.581457599999339.735000000000582-1.553628960000424,0-2.134871999998722Z" fill="#fff"/>
      <path d="M290.032619779420202,224.815827360000185c-1.259500000000116,0-1.259500000000116,2.095285679999506,0,2.095285679999506s1.259500000000116-2.095285679999506,0-2.095285679999506Z" fill="#fff"/>
      <path d="M296.032619779420202,236.007706080001299c-1.561799999999494,0-1.561799999999494,2.598107039999377,0,2.598107039999377s1.561799999999494-2.598107039999377,0-2.598107039999377Z" fill="#fff"/>
      <path d="M277.883319779419253,256.617159600000377c-.173799999998664-.472246560000713-.47939999999835-.745917839998583-.923099999999977-.910163520000424-1.170999999998457-.433303919999162-1.593999999999141,1.404617039999721-.831699999998818,1.949063039999601-.166699999999764.412598880000587.048899999999776.997060319999946.567699999999604.990194400001201.677299999999377-.00911879999876,1.093000000000757-.570515040000828,1.170900000000984-1.253352240000822.00460000000021-.040551839998443.003899999999703-.046559519998482.00460000000021-.062436959999104.004699999999502-.004827599999771.010800000000017-.013731840001128.025799999999435-.056429280000884.072199999998702-.204797519998465.059499999999389-.456690959999833-.014200000001438-.656875439999567Z" fill="#fff"/>
      <path d="M252.699319779419966,273.449498879999737c-1.259500000000116,0-1.259500000000116,2.095285680001325,0,2.095285680001325,1.259400000000824,0,1.259400000000824-2.095285680001325,0-2.095285680001325Z" fill="#fff"/>
      <path d="M221.365919779420437,272.737052399999811c-2.115999999999985,0-2.115999999999985,3.520178640001177,0,3.520178640001177s2.115999999999985-3.520178640001177,0-3.520178640001177Z" fill="#fff"/>
      <path d="M230.419419779420423,250.35908808000022c.008599999999205.180444960000386.028200000000652.357135119998929.048099999999977.536400000000867.137199999999211,1.239513119999174,1.659599999999045,1.239513119999174,1.796899999999368,0,.019800000000032-.179264880001938.039500000000771-.355955040000481.048000000000684-.536400000000867.062200000000303-1.309566959998847-1.955200000000332-1.309566959998847-1.893000000000029,0Z" fill="#fff"/>
      <path d="M230.981519779419614,228.733907520001594c-.27809999999954.135816479998539-.55619999999908.271740239997598-.83429999999862.407663999998476-.65230000000156.318728879999981-.681700000001001,1.349045999999362-.221400000000358,1.842855840000993.460399999999936.493917119998514,1.420799999999872.462376800001948,1.717899999999645-.237410640000235.126599999999598-.298345679999329.253300000000309-.596798640000998.379899999999907-.895144320000327.325399999999718-.766193760000533-.327799999999115-1.466946720000124-1.042100000000573-1.117964879998908Z" fill="#fff"/>
      <path d="M245.05691977942115,231.96453744000064c-.111000000000786-.270989280001231-.221800000001167-.541978560000643-.332900000001246-.812967840000056-.230299999999261-.562683600001037-1.152500000000146-.562683600001037-1.382799999999406,0-.111100000000079.270989279999412-.22190000000046.541978559998824-.332900000001246.812967840000056-.196199999998498.479005199998937-.174099999998361.875512080001499-.086899999998423,1.37972807999904.204999999999927,1.184585759998299,2.017499999999927,1.184585759998299,2.222399999998743,0,.087199999999939-.504215999997541.109300000000076-.900722880000103-.086899999998423-1.37972807999904Z" fill="#fff"/>
      <path d="M249.365919779420437,218.504759520003063c-.484200000000783-.033793200002037-.87460000000101.269701919996805-1.277900000000955.515373119998912-.680299999999988.414637199997742-.791999999999462,1.453536719996919-.244999999998981,2.04035832000045.54700000000048.586928879996776,1.515400000000227.466989839997041,1.901899999998932-.262943280002219.229100000000471-.432660239999677.512099999999919-.851481359999525.48030000000108-1.370823840001322-.032000000001062-.52728119999847-.367899999999281-.887420159999238-.859300000000076-.921964319995823Z" fill="#fff"/>
      <path d="M264.699319779419966,222.607361280000987c-1.335199999999531,0-1.335199999999531,2.22101783999824,0,2.22101783999824,1.335000000000946,0,1.335000000000946-2.22101783999824,0-2.22101783999824Z" fill="#fff"/>
      <path d="M274.032619779420202,219.199075680000533c-1.133499999999913,0-1.133499999999913,1.885767839998152,0,1.885767839998152s1.133499999999913-1.885767839998152,0-1.885767839998152Z" fill="#fff"/>
      <path d="M75.024619779420391,170.196039120000933c-.606321659384776-.421181280000383-1.201121644358864-.591220080001222-1.892321626897683-.312077520000457-.834299978923809.336751919998278-.834299978923809,1.481429520001257,0,1.818288720001874.691199982538819.279249839999466,1.285999967512907.109211039996808,1.892321626897683-.312077520000457.415278314807438-.288475920002384.415278314807438-.905550479999874,0-1.194133680000959Z" fill="#fff"/>
      <path d="M92.032619779420202,166.12755240000115c-1.309922071268375,0-1.309922071268375,2.179178640000828,0,2.179178640000828,1.309877862549911,0,1.309877862549911-2.179178640000828,0-2.179178640000828Z" fill="#fff"/>
      <path d="M97.365897540330479,188.214895199998864c-1.410599964365247,0-1.410599964365247,2.346750000000611,0,2.346750000000611,1.410722239090319,0,1.410722239090319-2.346750000000611,0-2.346750000000611Z" fill="#fff"/>
      <path d="M112.699297152976214,190.318548719998944c-1.461099963089509,0-1.461099963089509,2.430642960001933,0,2.430642960001933,1.460999963092036,0,1.460999963092036-2.430642960001933,0-2.430642960001933Z" fill="#fff"/>
      <path d="M106.699297304548963,210.448997039999085c-1.335099966272537,0-1.335099966272537,2.221125120002398,0,2.221125120002398s1.335099966272537-2.221125120002398,0-2.221125120002398Z" fill="#fff"/>
      <path d="M106.032619779420202,243.159634560000995c-1.561822418574593,0-1.561822418574593,2.598214319999897,0,2.598214319999897,1.561777502516634,0,1.561777502516634-2.598214319999897,0-2.598214319999897Z" fill="#fff"/>
      <path d="M68.474619779419299,269.177072880000196c-.474821497238736.448001280001336-.664221492454089,1.027098720001959-.884821486881265,1.642885920000481-.247599993745098.691205039998749.686821486882764.982148400000369,1.035299973846122.468169919999127.332199991607922-.49016231999849.645299983698351-.945673199998055.730899981535913-1.560602159999689.07709999805229-.55367207999916-.461199988349108-.947067839999363-.88137846850077-.550453679999919Z" fill="#fff"/>
      <path d="M77.075898052898992,245.578047599999991c-.194599995083991.267878160000691-.389199990167981.536078159997487-.583799985251972.804063600002337-.23339999410382.321625439997661.11459999710496.694959839998774.414299989533902.444461039996895.249899993686995-.208766879997711.499699987376516-.41753375999906.749599981063511-.62630063999859.420299989382329-.351234719999411-.252699993616261-1.073229120000178-.580099985345441-.622224000000642Z" fill="#fff"/>
      <path d="M60.048698483042244,246.840733200000614c-.169699995713017.096337439999843-.339299991428561.192996719997609-.508999987141578.28933416000109-.635899983935815.36174815999766-.635899983935815,1.447636320001038,0,1.809384479998698.169699995713017.096337440001662.339299991428561.192996720001247.508999987141578.289334159999271.853199978446355.485334720000537,1.939599951001583-.11285855999995,1.939599951001583-1.19402639999862,0-1.081167840000489-1.086399972555228-1.679361120000976-1.939599951001583-1.194026400000439Z" fill="#fff"/>
      <path d="M58.699298517130956,215.164811280001231c-2.544299935725576,0-2.544299935725576,4.232517839998764,0,4.232517839998764,2.544199935728102,0,2.544199935728102-4.232517839998764,0-4.232517839998764Z" fill="#fff"/>
      <path d="M38.917799016853678,205.576124880000862c-.038299999032461-.167893200001345-.076179237434189-.334606320000603-.121699996925599-.500353919998815-.222199994386756-.810607679999521-1.30479996703798-.810607679999521-1.526999961424735,0-.045479279082429.165747599998213-.083399997893139.332460719997471-.121699996925599.500353919998815-.141199996432988.619434719999845.275399993042811,1.24659359999896.885220717842458,1.24659359999896.609779244390666,0,1.026379233866464-.627158879999115.885179237433476-1.24659359999896Z" fill="#fff"/>
      <path d="M40.032619779420202,169.134932639999533c-1.133520762094122,0-1.133520762094122,1.885875120000492,0,1.885875120000492,1.133479180636641,0,1.133479180636641-1.885875120000492,0-1.885875120000492Z" fill="#fff"/>
      <path d="M61.890798436506884,134.470082640000328c-.292499992610828-.254575439998007-.562999985777424-.372368880000067-.931899976458226-.44714304000081-.616199984433479-.124873919998208-1.236199968770961.286866720000035-1.236199968770961,1.010148480003409,0,.723281759996098.619999984337483,1.13502239999616,1.236199968770961,1.010363039998992.368899990680802-.074774160000743.639399983847397-.192782160002025.931899976458226-.447357600001851.291899992625986-.254039039999043.291899992625986-.871757279997837,0-1.12601087999974Z" fill="#fff"/>
      <path d="M62.032619779420202,98.815038239999922c-.968000000000757,0-1.291321313874505,1.037612160002027-1.328121312944859,1.888449840002068-.079699997986609,1.837706399999661,2.735899930885353,1.837706399999661,2.656199932898744,0-.036799999070354-.850837680000041-.360078619953129-1.888449840002068-1.328078619953885-1.888449840002068Z" fill="#fff"/>
      <path d="M54.032619779420202,81.081546960002015c-.444521133169474.055892879998282-.888921121942985.111893039997085-1.333321110716497.167678639996666-1.029899973982538.129594240001097-1.029899973982538,1.588709520003249,0,1.718089200001486.444399988773512.056000160000622.888799977547023.111893040000723,1.333321110716497.167678640002123,1.232878824455838.155019599997104,1.232878824455838-2.208358800002316,0-2.053446480000275Z" fill="#fff"/>
      <path d="M32.032619779420202,59.58134759999848c-.781120568899496,0-1.293220555962762.795159360002799-1.123520560249744,1.582058160001907.036299999082985.168536880000829.080699997961347.333104399998774.125299996834656.499281119999068.285099992797768,1.060248240000874,1.711299956768926,1.060248240000874,1.996399949566694,0,.044599998873309-.166176720000294.088999997751671-.330744239998239.125299996834656-.499281119999068.169699995713017-.786898799999108-.342399991350248-1.582058160001907-1.123479382986261-1.582058160001907Z" fill="#fff"/>
      <path d="M26.032619779420202,31.693697040000188c-2.141220382967731,0-2.141220382967731,3.562125120000928,0,3.562125120000928,2.141179508849746,0,2.141179508849746-3.562125120000928,0-3.562125120000928Z" fill="#fff"/>
      <path d="M9.521699759461626,27.862191840000378c-.211799994649482-.040337279999221-.423699989296438-.080781840000782-.63549998394592-.121226399998704-1.134699971335067-.216383760000099-1.134699971335067,1.671207839999624,0,1.454824079999526.211799994649482-.040551840002081.423699989296438-.080889120001302.63549998394592-.121333679999225.561599985812791-.107065440000952.561599985812791-1.105091280001943,0-1.212264000001596Z" fill="#fff"/>
      <path d="M9.542499758936174,1.319081520001419c-.073699998138181-.07413047999944-.133699996622454-.082283760002611-.180299995445239-.024352560001716-.612099984537053-.507756240000163-1.600399959570495-.250069679999797-1.600399959570495.711159120000957,0,.961228799998935.988299975033442,1.219129919998522,1.600399959570495.711266400001477.046599998822785.057823919998555.106599997307057.049777919999542.180299995445239-.024245280001196.633699983991391-.201042720002079.633699983991391-1.172999520002122,0-1.373827679999522Z" fill="#fff"/>
      <path d="M46.032619779420202-.597904799999014c-1.01732091660233,0-1.363220907864161,1.247451839999485-.773420922763762,2.00313215999995.101299997440947.129808800000319.20249999488442.259510319998299.30389999232284.389211839998097.218199994487804.279678959999728.72079998179106.279678959999728.938999976278865,0,.101399997438421-.129701519999799.202599994881894-.259403039997778.30389999232284-.389211839998097.589799985100399-.755680320000465.243899993838568-2.00313215999995-.773379038160783-2.00313215999995Z" fill="#fff"/>
      <path d="M82.032619779420202,18.06023279999863c-1.335121818010521,0-1.335121818010521,2.221017840001878,0,2.221017840001878,1.335078114534554,0,1.335078114534554-2.221017840001878,0-2.221017840001878Z" fill="#fff"/>
      <path d="M72.15309817725938,48.364579920002143c-.644299983723613-.691205040002387-1.557699960649188-.278391600002578-1.860699952994764.527066639997429-.102899997400527.273564000000988-.205778444844327.547342560001198-.308778444843483.821013840002706-.20192154225515.536936399999831.412578442221275,1.196171999996295.912999999998647.979573679996975.255078423137093-.110605679996297.510178416692725-.221104079995712.765278410248357-.331387919999543.750799981033197-.32495112000106,1.135599971312331-1.304953919998297.491199987591244-1.996266239997567Z" fill="#fff"/>
      <path d="M54.032619779420202,61.3139196000011c-.064521142769081,0-.064521142769081.107280000000173,0,.107280000000173.064478853972105,0,.064478853972105-.107280000000173,0-.107280000000173Z" fill="#fff"/>
      <path d="M64.925998359831283,21.615384720000293c-.368199990698486-.268843679998099-.695599982427666-.551311919998625-1.021499974194739-.876799439998649-.991999974939972-.991481760001989-1.896599952087854,1.142317439996987-.740999981280765,1.36567439999817.491699987578613.095050080000874.943499976165185.218422080000892,1.416299964221253.392001119998895.507499987179472.186345360003543.746499981141824-.588645359996008.346199991254252-.880876079998416Z" fill="#fff"/>
      <path d="M70.512298218709475,71.368201199999021c-.437999988935189.190743840001232-.751399981018039.44113536000259-1.114999971832731.761044320002839-.900299977256509.792370079998364.53199998656055,2.328941519999717,1.270599967901944,1.363099679998413.298299992464308-.390070080000442.531599986570654-.726392880000276.709399982079049-1.196279279996816.191999995149672-.5077562400038-.391599990107352-1.13394960000187-.864999978148262-.927864720004436Z" fill="#fff"/>
      <path d="M100.28179746666865,63.973712640001395c-.963499975659943-.284292000000278-1.635699958678742,1.215160559997457-.810599979522522,1.768081679998431.005099999871163.026176319999649.010099999744853.052352640002937.015199999616016.078528960000767.112499997158011.581994000001941.979899975245644.581994000001941,1.092399972403655,0l.020699999477074-.107065440000952c.528499986648967-.501212159999341.488499987659452-1.501598160000867-.317699991974223-1.739545199998247Z" fill="#fff"/>
      <path d="M90.555397712378181,98.945276160000503c-.149099996233417-.284184719997938-.298299992464308-.568476719998216-.447399988697725-.852661440001611-.698377944259846-1.331022959997426-2.416499938954075.512047439999151-1.175799970296794,1.261398240001654.264999993305537.160061759997916.529799986616126.320016239998949.794799979921663.480078000002322.531899986563076.321089039998697,1.127799971509376-.318192480002836.828399979072856-.888814800002365Z" fill="#fff"/>
      <path d="M106.383797312519164,127.302169439999489c-.264899993308063.159954480001034-.529799986616126.319908960002067-.794799979921663.479970720001802-.495199987490196.299096639999334-.573799985504593,1.056171599999288-.177899995505868,1.480893119998655.395899989998725.424828799999887,1.101699972168717.340506720000121,1.380399965128163-.190851120001753.149199996230891-.284184719996119.298299992464308-.568476719998216.447499988695199-.852661439997974.308999992194003-.588967199999388-.306099992267264-1.248953759999495-.855199978395831-.91735128000073Z" fill="#fff"/>
      <path d="M140.032619779420202,99.341568480000205c-1.637423275577021,0-1.637423275577021,2.72394648000045,0,2.72394648000045,1.637376641694573,0,1.637376641694573-2.72394648000045,0-2.72394648000045Z" fill="#fff"/>
      <path d="M175.547695565292088,56.369169839999813c-.199799994952627-.087433200000305-.399499989907781-.175080959999832-.599199984862935-.26272871999754-.576199985443964-.252429840002151-1.186699970021436.375372719998268-1.186699970021436.969918479999251s.610499984577473,1.222348319997764,1.186699970021436.969918479999251c.199699994955154-.087647759999527.399399989910307-.175295519999054.599199984862935-.262728719999359.647199983650353-.283648320000793.647199983650353-1.13073120000081,0-1.414379520001603Z" fill="#fff"/>
      <path d="M192.863195127865765,66.881644320001215c-.182299995394715.108674639997844-.318199991961592.206943119997959-.522199986808118.243847439998717-1.029899973982538.186238080001203-1.255999968270771,1.706932080000115-.594699984976614,2.416374719998203.661399983291631.709549920002246,2.078899947482569.466882560003796,2.252499943097064-.637994159998925.034299999133509-.218851199997516.125824680242658-.364537439998458.227199994260445-.560216159998163.488799987651873-.942347520001931-.484299987765553-1.986396480002441-1.362799965572776-1.462011839999832Z" fill="#fff"/>
      <path d="M213.365894609923998,58.174263120001342c-1.25939996818488,0-1.25939996818488,2.095392959998208,0,2.095392959998208,1.259499968182354,0,1.259499968182354-2.095392959998208,0-2.095392959998208Z" fill="#fff"/>
      <path d="M198.860194976368803,43.576351679999789c-.199699994955154-.087540479999006-.399399989910307-.175080959999832-.599099984865461-.262514160001956-.528199986656546-.231510239997078-1.087899972517334.34383240000534-1.087899972517334.888922080002885,0,.545089679999364.559699985860789,1.120432319999964,1.087899972517334.888922080001066.199699994955154-.087433200000305.399399989910307-.174973680001131.599099984865461-.262728720001178.573299985517224-.251142480001363.573299985517224-1.001244240000233,0-1.252601280000817Z" fill="#fff"/>
      <path d="M216.699294525715231,16.336457760000485c-1.324999966527685,0-1.755799955644761,1.889093519999733-.660499983314367,2.616130079997674.004825237019759.003218400004698.009699999754957.006329520003419.014499999633699.00954792000266.340799991390668.469564560000435.951199975970667.469564560000435,1.292025237386042,0,.004799999998795-.003218399999241.009599999999409-.006329519997962.014400000000023-.00954792000266,1.095299999999042-.727036559997941.664600000000064-2.616130079997674-.660425253705398-2.616130079997674Z" fill="#fff"/>
      <path d="M242.032619779420202,9.540698879998672c-1.259500000000116,0-1.259500000000116,2.095285680001325,0,2.095285680001325s1.259500000000116-2.095285680001325,0-2.095285680001325Z" fill="#fff"/>
      <path d="M243.073919779420976,41.369602079999822c-.169700000000375-.096444719998544-.339400000000751-.192996719999428-.509000000000015-.289334159999271-.698100000001432-.397150560000227-1.587000000001353.092260800000076-1.587000000001353.976891680002154,0,.884630879996621.888899999999921,1.374042239998744,1.587000000001353.976891679996697.169599999999264-.096337439999843.339299999999639-.192996719999428.509000000000015-.289334159997452.483399999999165-.275065920000998.483399999999165-1.10004912000295,0-1.375115040002129Z" fill="#fff"/>
      <path d="M283.773119779420085,33.894868080000379c-.295899999999165.044413920000807-.547599999999875.105563519999123-.801499999999578.286544880000292-.502500000000509.358315200001016-.502500000000509,1.089213839999502,0,1.447421759999997.253899999999703.180981360001169.505600000000413.242130959999486.801499999999578.286544880000292.616400000000795.092368080000597,1.236100000000079-.262621440000657,1.236100000000079-1.010255760000291,0-.747527039999113-.619699999999284-1.102623839999069-1.236100000000079-1.010255760000291Z" fill="#fff"/>
      <path d="M186.032619779420202,31.502309520003109c-1.511424440817791,0-1.511424440817791,2.514321359998576,0,2.514321359998576,1.511375482819858,0,1.511375482819858-2.514321359998576,0-2.514321359998576Z" fill="#fff"/>
      <path d="M144.69929634458822,71.658286320000116c-1.385499964999326,0-1.385499964999326,2.304803519999041,0,2.304803519999041,1.385399965001852,0,1.385399965001852-2.304803519999041,0-2.304803519999041Z" fill="#fff"/>
      <path d="M172.032619779420202,76.221870240002318c-1.058000000000902,0-1.058000000000902,1.7600356799976,0,1.7600356799976s1.058000000000902-1.7600356799976,0-1.7600356799976Z" fill="#fff"/>
      <path d="M21.251699463136902,79.370109120000052c-.398699989927991-.427725359997567-1.178199970236165-.256077359999836-1.305799967012717.369794160000311-.047399998802575.232690320000984-.259099993454583.453472560000591-.385499990261451.641856240001289-.3154999920298.470208239998101.309999992168741,1.141244639999059.748220273557308.80277623999973.175579703105541-.135601920001136.381379697906596-.362820960001045.598279692427241-.413564400001633.58349998525955-.136889279998286.74349998121761-.973029599997972.344799991289619-1.400862239999697Z" fill="#fff"/>
      <path d="M20.532619779420202,446.776859999999942c-.289720290798869.022957920002227-.569999999999709.07413047999944-.853120276566187.140000400000645-1.271699967874156.295985520000613-1.271699967874156,2.45177712000077,0,2.747762639999564.283120276566478.065977199999907.563399985767319.117149760000757.853120276566187.140000399998826,1.819479655918258.143326080002225,1.819479655918258-3.171196799998143,0-3.027763439999035Z" fill="#fff"/>
      <path d="M44.032619779420202,472.212197040000319c-1.335120858049777,0-1.335120858049777,2.22112511999876,0,2.22112511999876,1.335079074495297,0,1.335079074495297-2.22112511999876,0-2.22112511999876Z" fill="#fff"/>
      <path d="M38.013799039690639,249.910872239999662c-.094099997622834-.366683039999771-.322699991847912-.684553680001045-.628399984125281-.876692159999948-.530199986606021-.333104399998774-1.222699969112-.236230559998148-1.656699958148238.229471919999924-.654499983465939.702040320000378-.376199990496389,1.764005040000484.233920682003372,2.267148240000097.009279311852879.397150560002046.262579305453983.786791520002225.733579293555522.80427815999974.879699977776909.032827680000992,1.454299963261292-.945244079999611,1.345899965999706-1.820005200001106.035099999113299-.202222799998708.025699999350763-.40358735999871-.028299999285082-.604200959998707Z" fill="#fff"/>
      <path d="M63.404198398275184,352.455211200000122c-.48949998763419-.896538960001635-1.70849995683966-1.092754080000304-2.392699939555314-.330851520002398-.330399991653394.367970400002378-.660799983306788.736048080003457-.991299974957656,1.104018480004015-.781099980267754.870040799998606.013421295658191,2.141952479998508,1.045199973596027,1.926212399997894l1.428399963915581-.298560239998551c.977599975303747-.204475680002361,1.379199965158477-1.54225728000165.910399977001362-2.400819120000961Z" fill="#fff"/>
      <path d="M26.990099318172724,394.949677439999505c-1.219099969202944-.359709839996867-1.76129995550582,1.3025937600014-.952999975925195,2.030595840002206.000999999974738.003754799998205.001999999949476.007402319997709.002999999924214.011049839999032.193699995106726.699465600000622,1.123520437247862.699680159998024,1.317899966707046.000858240000525.18269999538461-.143433360000927.326999991739285-.330100560000574.395999989996199-.599051520001012.157999996008584-.616430879998006-.189499995212827-1.273949999998877-.763899980702263-1.443452400000751Z" fill="#fff"/>
      <path d="M78.699298011888459,404.522379120000551c-1.889299952272268,0-1.889299952272268,3.142982160001338,0,3.142982160001338,1.889199952274794,0,1.889199952274794-3.142982160001338,0-3.142982160001338Z" fill="#fff"/>
      <path d="M103.700619779419867,434.701959600000919c.019477600390019.238376159999461.039000000000669.476859599997624.05857759940227.715128479998384.0308999992194.377732880002441.51589998696727.377732880002441.54679998618667,0,.01962241441106-.23826888000076.039099999012251-.476752319998923.05862241441173-.715128479998384.037577583158054-.459158400000888-.701622398168183-.459158400000888-.664000000000669,0Z" fill="#fff"/>
      <path d="M89.990997726636124,469.302656160001789c-.204377947215107.322912800000267-.408499989680422.618469199998799-.523377947216431.992125439997835-.136999999998807.445212000002357.305677952715996.920247840000229.720777942229688.773274240002138.348399991198676-.123264719999497.623799984241487-.342223200001172.924899976635061-.561396240002068,1.105322081135455-.804814560000523-.372099990599963-2.389876559996992-1.122299971648317-1.204003439997905Z" fill="#fff"/>
      <path d="M131.703619779420478,459.337095120001322c-1.24772307501371.78400223999779-1.314323073331252,2.888192159998653,0,3.654600480000227.553076879494256.322376399999484,1.0896768659386.525564719997419,1.695576850632278.172506239998256.721899981763272-.420966719997523,1.272699967848894-1.056064320000587,1.272699967848894-1.99991375999889,0-1.602763200000481-1.676276818481711-2.639195280000422-2.968276818481172-1.827192959999593Z" fill="#fff"/>
      <path d="M157.63839601771906,485.904021600001215c-.768699980581005-.824768640002731-1.858399953052867-.332246160003706-2.219776238298437.628768079997826-.103000000000975.273564000002807-.205923700423227.547235280002496-.308923697821228.821013840002706-.260299993424269.692170559997976.532099986558023,1.542364559996713,1.1772999702589,1.262900159999845.255099993555632-.110391120000713.510199987111264-.220782239999608.765299980666896-.33128064000266.895799977370189-.387709919999907,1.354799965774873-1.556740079999145.586099985193869-2.381401439997717Z" fill="#fff"/>
      <path d="M103.403619779419387,495.453443520000292c-.058999999999287-.055785599999581-.117999999998574-.111785760000203-.17699999999968-.167571360001602-.775322367557237-.734867999997732-2.077922334650793-.268521839998357-2.077922334650793.923251680002068,0,1.191880799999126,1.302599967093556,1.6581196799998,2.077922334650793.923466240001289.059000000001106-.056107440002961.118000000000393-.111893040002542.17699999999968-.167893200003164.389077598556469-.368828639999265.389077598556469-1.142424719997507,0-1.511253359998591Z" fill="#fff"/>
      <path d="M280.703119779420376,388.533582480000405c-.098200000000361-.328705920001084-.211499999999432-.625871520000146-.392700000000332-.911879999999655-.477499999999054-.753534720000971-1.411299999999756-.753534720000971-1.888899999999921,0-.181300000000192.286008479999509-.294700000000375.583174079998571-.392799999999625.911879999999655-.277099999999336.928186559998721.46389999999883,1.883193119998396,1.337199999999939,1.883193119998396.873400000000402,0,1.614299999999275-.955006559999674,1.337199999999939-1.883193119998396Z" fill="#fff"/>
      <path d="M307.720819779420708,359.669898480000484l-.479300000000876-.343939680000403c-.690099999999802-.494775360000858-1.616399999998976.161563679999745-1.616399999998976.995129279999674s.926299999999173,1.489904640000532,1.616399999998976.995129280001493l.479300000000876-.343725120003c.452199999999721-.324200159999236.452199999999721-.978500879997227,0-1.302593759997762Z" fill="#fff"/>
      <path d="M314.032619779420202,315.269173919999957c-1.712900000000445,0-1.712900000000445,2.849571360002301,0,2.849571360002301s1.712900000000445-2.849571360002301,0-2.849571360002301Z" fill="#fff"/>
      <path d="M284.699319779419966,350.607205919999615c-1.360300000000279,0-1.360300000000279,2.26296431999981,0,2.26296431999981,1.360200000000987,0,1.360200000000987-2.26296431999981,0-2.26296431999981Z" fill="#fff"/>
      <path d="M252.032619779420202,340.196325600001728c-1.838900000000649,0-1.838900000000649,3.059089199998198,0,3.059089199998198s1.838900000000649-3.059089199998198,0-3.059089199998198Z" fill="#fff"/>
      <path d="M225.365919779420437,367.960604160003641c-1.133499999999913,0-1.133499999999913,1.885767839998152,0,1.885767839998152,1.133599999999205,0,1.133599999999205-1.885767839998152,0-1.885767839998152Z" fill="#fff"/>
      <path d="M243.365919779420437,386.723447040001702c-.931899999999587,0-.931899999999587,1.550625119998585,0,1.550625119998585.932099999999991,0,.932099999999991-1.550625119998585,0-1.550625119998585Z" fill="#fff"/>
      <path d="M244.032619779420202,414.660982800000056c-1.737999999999374,0-1.737999999999374,2.891517840002052,0,2.891517840002052s1.737999999999374-2.891517840002052,0-2.891517840002052Z" fill="#fff"/>
      <path d="M274.032619779420202,421.115913120000187c-.856400000000576,0-.856400000000576,1.424892959999852,0,1.424892959999852s.856400000000576-1.424892959999852,0-1.424892959999852Z" fill="#fff"/>
      <path d="M305.638319779420272,388.205412960000103c-.248499999999694.190100160001748-.497100000000501.380307599998559-.745600000000195.570407759998488-.485500000000684.371510640001361-.646500000000742,1.089750240002104-.189700000000812,1.57959072000267.456800000001749.490055039997969,1.126200000000608.317441519999193,1.472400000000562-.203510160001315.177300000001196-.266590799999904.354499999999462-.533181599999807.531800000000658-.799879679998412.448200000000725-.674147520001497-.440500000000611-1.627544880000642-1.068900000000212-1.146608640001432Z" fill="#fff"/>
      <path d="M337.551519779419323,393.480370560000665c-.008599999999205-.020919600003253-.017199999998411-.042053760000272-.025899999998728-.062973359999887-.27599999999984-.672538319999148-1.37670000000071-.672538319999148-1.65270000000055,0-.009200000000419.022636079998847-.018799999999828.045379440001852-.028000000000247.068015520000699-.231200000000172.18409247999989-.413899999999558.421610399998826-.501599999999598.76415543999974-.203299999999217.792584639999404.243500000000495,1.638058319998891.982099999999264,1.855943999998999.7387000000017.217885680001928,1.526800000001458-.261334079998051,1.729900000000271-1.053704160000052.163000000000466-.635741280002549-.070599999999104-1.207543680000526-.50380000000041-1.571437439999499Z" fill="#fff"/>
      <path d="M368.032619779420202,346.399898879999455c-1.259500000000116,0-1.259500000000116,2.095285680001325,0,2.095285680001325s1.259500000000116-2.095285680001325,0-2.095285680001325Z" fill="#fff"/>
      <path d="M342.032619779420202,325.533295200000794c-.991900000000896,0-1.397499999999127,1.258716239999558-.773400000000038,2.00313215999995-.065300000000207-.102452400000402-.058600000000297-.06629903999783.020000000000437.1082455199994.285099999999147.795052080002279,1.221700000000055.795052080002279,1.506799999999203,0,.078600000000733-.17454455999723.085300000000643-.210697919999802.020000000000437-.1082455199994.624099999999089-.744415920000392.218500000000859-2.00313215999995-.773400000000038-2.00313215999995Z" fill="#fff"/>
      <path d="M332.699319779419966,354.769991760002085c-.655000000000655,0-.655000000000655,1.089535679999244,0,1.089535679999244.65480000000025,0,.65480000000025-1.089535679999244,0-1.089535679999244Z" fill="#fff"/>
      <path d="M222.723219779420106,345.276355440000771c-.546099999999569-.585856080000667-1.395300000000134-.267770880000171-1.632299999999304.462269519999609-.073900000001231.227648160001991-.19800000000032.418177439998544-.315300000000207.623618640001951-.356999999999971.625656959997286.352199999999357,1.386379439998564.935299999999188,1.003389839997908.191500000000815-.125839439999254.369099999999889-.258973919999335.581299999999828-.338253839998288.680500000000393-.254146320003201.977000000000771-1.165275360002852.431000000000495-1.75102416000118Z" fill="#fff"/>
      <path d="M200.153094943707401,338.735815680000087c-.542399986297823-.581886720001421-1.337199966219487-.376874640001915-1.748399955831701.241809120001562-.354499991044577.533074320001106-.709075208455033,1.066255919999094-1.063599973131204,1.599544799999421-.45939998839458.691097760000048.451399988596677,1.668311280000125,1.09569997232029,1.17546695999954l1.490999962334172-1.140922799999316c.576499985436385-.441242640001292.767699980606267-1.294011359999786.225299994308443-1.875898080001207Z" fill="#fff"/>
      <path d="M203.491894859362219,361.969767120001052c-.333699991570029-.639925199999198-1.251499968384451-.639925199999198-1.585275079942221,0-.211524874666793.405411120000281-.285524872797396.751925520000441-.340124871418084,1.212156719999257-.078299998021976.65891376000036.574399985489435,1.215267839999797,1.132799971383065,1.215267839999797.558324900035586,0,1.210999969407567-.556354079999437,1.132799971383065-1.215267839999797-.054699998618162-.460231199998816-.128699996748765-.806745599998976-.340199991405825-1.212156719999257Z" fill="#fff"/>
      <path d="M279.365919779420437,324.18682391999937c-.683899999999994,0-1.123300000001109.692814239999279-.979300000000876,1.379191680001895.094200000001365.448966799998743.188200000000506.897826320000604.282500000001164,1.346793119999347.155699999999342.742163040000378,1.237999999999374.742163040000378,1.393700000000536,0,.094099999998434-.448966799998743.18829999999798-.897826320000604.282499999999345-1.346793119999347.143799999999828-.686377440002616-.295500000000175-1.379191680001895-.979400000000169-1.379191680001895Z" fill="#fff"/>
      <path d="M284.032619779420202,367.9633934400008c-1.989999999999782,0-1.989999999999782,3.310553519999303,0,3.310553519999303s1.989999999999782-3.310553519999303,0-3.310553519999303Z" fill="#fff"/>
      <path d="M264.699319779419966,402.122632799999337c-.829400000000533,0-1.230199999999968.930975840001338-.893899999999121,1.670993280000403.084399999999732.185594400001719.16859999999906.370974240002397.253099999999904.556568640000478.236300000000483.519986160001281,1.04529999999977.519986160001281,1.281600000000253,0,.08429999999862-.185594399998081.168700000000172-.370974239998759.252999999998792-.556568640000478.33640000000014-.740017439999065-.064399999999296-1.670993280000403-.893799999999828-1.670993280000403Z" fill="#fff"/>
      <path d="M290.699319779419966,405.402396960002079c-.831299999999828,0-.831299999999828,1.382946480000101,0,1.382946480000101.831200000000536,0,.831200000000536-1.382946480000101,0-1.382946480000101Z" fill="#fff"/>
      <path d="M322.032619779420202,379.804745280000134c-1.511500000000524,0-1.511500000000524,2.514428639999096,0,2.514428639999096s1.511500000000524-2.514428639999096,0-2.514428639999096Z" fill="#fff"/>
      <path d="M264.032619779420202,359.040272160000313c-.680200000000696,0-.680200000000696,1.131374880000294,0,1.131374880000294s.680200000000696-1.131374880000294,0-1.131374880000294Z" fill="#fff"/>
      <path d="M242.032619779420202,363.187502400000085c-1.712999999999738,0-1.712999999999738,2.849678640001002,0,2.849678640001002,1.712900000000445,0,1.712900000000445-2.849678640001002,0-2.849678640001002Z" fill="#fff"/>
      <path d="M363.365919779420437,57.500973840002189c-1.209000000000742,0-1.209000000000742,2.011499999998705,0,2.011499999998705,1.209199999999328,0,1.209199999999328-2.011499999998705,0-2.011499999998705Z" fill="#fff"/>
      <path d="M397.814619779419445,22.613410560001284c-.387499999998909.094299119997231-.727199999999357.196751519999452-1.059799999999086.441993600001297-.636500000000524.469242719998874-.827900000000227,1.415237760000309-.245100000000093,2.040358319998631.582699999999022.625013279999621,1.464599999999336.420001199998296,1.901799999999639-.262835999999879.22860000000037-.357027840000228.324200000000928-.721350720001283.412099999999555-1.13695344000007.141400000000431-.668676240000423-.385699999998906-1.234256400000959-1.009000000000015-1.082562479999979Z" fill="#fff"/>
      <path d="M134.699296597209468,38.780077440000241c-1.360299965635932,0-1.360299965635932,2.26296431999981,0,2.26296431999981,1.360199965638458,0,1.360199965638458-2.26296431999981,0-2.26296431999981Z" fill="#fff"/>
      <path d="M406.403319779419689,42.335873039999569c-.828499999999622.360568080002849-1.572399999999107,1.081704240001272-1.312399999998888,2.145278160001908.085299999998824.348767280000175.357099999999264.64035431999946.682199999999284.731864159999532.991400000000795.278927999997904,1.66359999999986-.519127920000756,1.999700000000303-1.407942720001301.304000000000087-.803956319999998-.620100000000093-1.795438079998348-1.369500000000698-1.469199600000138Z" fill="#fff"/>
      <path d="M461.770119779419474,39.169825680002759l-.469399999999951-.361962720002339c-.755199999999604-.581994000000122-1.792799999999261.204046560000279-1.792799999999261,1.103696639998816,0,.899650080000356,1.037599999999657,1.685690640000757,1.792799999999261,1.103696640000635.15650000000096-.120689999997921.313000000000102-.24116543999844.469399999999951-.36196272000052.511900000001333-.394468559998131.511900000001333-1.08899928000028,0-1.483467839996592Z" fill="#fff"/>
      <path d="M474.032619779420202,4.893222000000605c-1.181599999999889,0-1.67870000000039,1.508571359998314-.92529999999897,2.396635200000674.105799999999363.124766639999507.211699999999837.249640559999534.317599999998492.374299919996702.304700000000594.359280720002062.910700000000361.359280720002062,1.215400000000955,0,.105899999998655-.124659359997167.21179999999913-.249533279997195.317600000000311-.374299919996702.753399999999601-.88806384000236.256299999999101-2.396635200000674-.925300000000789-2.396635200000674Z" fill="#fff"/>
      <path d="M432.699319779419966,3.902813040000183c-1.158799999999246,0-1.158799999999246,1.927714319999723,0,1.927714319999723,1.158699999999953,0,1.158699999999953-1.927714319999723,0-1.927714319999723Z" fill="#fff"/>
      <path d="M441.365919779420437,53.209773840002526c-1.209000000000742,0-1.209000000000742,2.011499999996886,0,2.011499999996886,1.209199999999328,0,1.209199999999328-2.011499999996886,0-2.011499999996886Z" fill="#fff"/>
      <path d="M362.616519779419832,16.85236728000018c-.139400000000023-.504430559998582-.209100000000035-1.024953119998827-.3841999999986-1.513828080001986-.482200000000375-1.346042159999342-2.316200000001118-.408307679996142-1.642100000000937.742806720001681.269800000000032.460767599999599.618200000000797.835711199999423.919599999999264,1.271589840000161.386100000001534.558392400002049,1.315300000000207.254897280003206,1.106700000000274-.500568479999856Z" fill="#fff"/>
      <path d="M486.699319779419966,5.985546960002466c-.846400000000358,0-1.251699999998891,1.112493599997833-.676699999999983,1.752740639998592-.039600000000064.049777919999542-.027399999999034.109211040000446.036400000000867.178621199998815.187199999998484.679940640002314,1.093199999999342.679940640002314,1.280600000000049,0,.063799999999901-.06941015999837.075799999998708-.128843279999273.036399999999048-.178621199998815.574800000000323-.640247040000759.169799999999668-1.752740639998592-.676699999999983-1.752740639998592Z" fill="#fff"/>
      <path d="M494.032619779420202,123.173605920001137c-1.360399999999572,0-1.360399999999572,2.26296431999981,0,2.26296431999981s1.360399999999572-2.26296431999981,0-2.26296431999981Z" fill="#fff"/>
      <path d="M479.663919779421121,159.345847200000208c-.425400000000081.073915920000218-.850800000000163.148046399999657-1.276100000000952.222176880000916-1.123499999999694.195678720003343-1.123499999999694,2.228956559998551,0,2.424527999999555.425300000000789.07413047999944.85070000000087.148260959998879,1.276100000000952.222391439998319.875499999998283.152444880002804,1.75539999999819-.388889999998355,1.75539999999819-1.434655439998096,0-1.045550880000519-.879899999999907-1.586885759999859-1.75539999999819-1.434440880000693Z" fill="#fff"/>
      <path d="M438.699319779419966,167.560705919999236c-2.16649999999936,0-2.16649999999936,3.603964320000159,0,3.603964320000159,2.166300000000774,0,2.166300000000774-3.603964320000159,0-3.603964320000159Z" fill="#fff"/>
      <path d="M437.431319779419937,217.211177279999902c-.260800000000017-.355740480001259-.65309999999954-.488338560000557-1.030000000000655-.649365839999518-.854099999998652-.364751999999498-1.75539999999819.548415359999126-1.75539999999819,1.434548159999395,0,.886132800002088.901299999999537,1.799300160000712,1.75539999999819,1.434548159999395.376900000001115-.161027279998962.769200000000637-.293625359998259,1.030000000000655-.649365839999518.382100000000719-.521488079997653.382100000000719-1.048876560000281,0-1.570364639999752Z" fill="#fff"/>
      <path d="M478.699319779419966,196.69248264000089c-1.108200000000579,0-1.485099999999875,1.358808480001244-.842500000000655,2.182075200000327.101300000000265.129594239997459.202700000001641.259510320000118.303900000000795.389211839999916.250299999999697.320767199998954.826900000000023.320767199998954,1.077199999999721,0,.101300000000265-.129701519999799.202500000001237-.259617600002457.30370000000039-.389211839999916.642600000001039-.823266719999083.265900000000329-2.182075200000327-.84230000000025-2.182075200000327Z" fill="#fff"/>
      <path d="M470.699319779419966,237.901841760001844c-1.86410000000069,0-1.86410000000069,3.10103567999613,0,3.10103567999613s1.86410000000069-3.10103567999613,0-3.10103567999613Z" fill="#fff"/>
      <path d="M493.32071977941996,244.507285920000868c-.120899999999892-.108674639999663-.241799999999785-.217349280001145-.36279999999897-.326023920000807-.842800000000352-.756967679999434-2.233900000001086-.313043039999684-2.233900000001086.992661840000437,0,1.305812159998823,1.391100000000733,1.749844079999093,2.233900000001086.992554559999917.120999999999185-.108567359997323.241899999999077-.217027440001402.36279999999897-.325809360001585.344999999999345-.309824640000443.344999999999345-1.023558479997519,0-1.333383119997961Z" fill="#fff"/>
      <path d="M346.699319779419966,423.2433828000012c-1.738199999999779,0-1.738199999999779,2.891517839998414,0,2.891517839998414,1.738100000000486,0,1.738100000000486-2.891517839998414,0-2.891517839998414Z" fill="#fff"/>
      <path d="M328.699319779419966,450.122064959999989c-.444499999999607.01394640000035-.888899999999921.0278928000007-1.333399999999529.04183920000105-.327300000000832.010406159997729-.327300000000832.534468959998776,0,.544767839999622.444499999999607.014053679999051.888899999999921.027892799998881,1.333399999999529.041946479999751.377899999999499.011908079999557.377899999999499-.640568880000501,0-.628553520000423Z" fill="#fff"/>
      <path d="M298.032619779420202,453.344648880001841c-1.662599999999657,0-1.662599999999657,2.765785679999681,0,2.765785679999681s1.662599999999657-2.765785679999681,0-2.765785679999681Z" fill="#fff"/>
      <path d="M280.699319779419966,486.138964800000394c-1.788500000000568,0-1.788500000000568,2.975410799999736,0,2.975410799999736,1.788399999999456,0,1.788399999999456-2.975410799999736,0-2.975410799999736Z" fill="#fff"/>
      <path d="M343.365919779420437,492.78817920000256c-2.393099999999322,0-2.393099999999322,3.981160799998179,0,3.981160799998179,2.393000000000029,0,2.393000000000029-3.981160799998179,0-3.981160799998179Z" fill="#fff"/>
      <path d="M368.032619779420202,442.873691759999929c-3.073200000000725,0-3.073200000000725,5.112535679998473,0,5.112535679998473s3.073200000000725-5.112535679998473,0-5.112535679998473Z" fill="#fff"/>
      <path d="M201.365894913069496,464.766857759997947c-1.687699957365112,0-1.687699957365112,2.80762488000255,0,2.80762488000255,1.687799957362586,0,1.687799957362586-2.80762488000255,0-2.80762488000255Z" fill="#fff"/>
      <path d="M145.365896327748487,411.503946960001485c-1.234276548328126,0-1.234276548328126,2.053446479998456,0,2.053446479998456,1.234299968818959,0,1.234299968818959-2.053446479998456,0-2.053446479998456Z" fill="#fff"/>
      <path d="M162.686895890183223,396.069144240000242c-.433999989036238-.449717759998748-1.162899970622675-.363142800000787-1.472399962804047.203617439998197-.239699993944669.439097040001798-.114299997112539.969489360002626.221899994394334,1.272984480003288-.023699999401288.890316719998737.954499975887302,1.151436239997565,1.413999964279355.453687119997994.385599990258925-.585534240000925.31339999208285-1.435942799998884-.163499995869643-1.930289039999479Z" fill="#fff"/>
      <path d="M404.383819779421174,364.033405199999834c-.186600000000908.137532959999589-.367799999999988.308966400003555-.584800000000541.384920640000928-.620200000001205.217134720000104-.872400000000198,1.056171599999288-.387899999999718,1.57594319999771.484499999998661.519664320001539,1.266499999999724.249211440001091,1.468999999999141-.416139119997752.070799999999508-.232690320000984.230600000000777-.427081679999901.358799999999974-.627266160001454.350800000000163-.547664399999121-.344699999999648-1.293582239997704-.855099999998856-.917458559999432Z" fill="#fff"/>
      <path d="M426.025019779419381,278.593360320001011c-.010599999999613-.037333439999202-.021499999998923-.074666880000223-.032199999999648-.112107600001764-.028299999999945-.456369119998271-.264600000000428-.792048239996802-.575399999999718-1.178685359998781-.85819999999876-1.067650559998583-2.431699999999182.62040024000089-1.436299999999392,1.540969919999043.360300000000279.333318960001634.673099999999977.586821600001713,1.098500000000058.617396400000871.03479999999945.011478960001114.069700000000012.02317247999963.104600000000573.034544160002042.491499999998268.162421919996632.992199999998775-.374943600001643.840799999998126-.902117520001411Z" fill="#fff"/>
      <path d="M486.450819779420272,295.435140240002511c-.29910000000018-.820155600002181-.879000000000815-1.430686080000669-1.751500000000306-1.430686080000669s-1.452499999999418.610530479998488-1.751500000000306,1.430686080000669c-.313899999999194.860707439996986-.016599999999016,1.769261759998699.590900000001056,2.34782279999672.490200000000186,1.176754320000327,1.830799999999726,1.176754320000327,2.320999999999913,0,.607699999998658-.578561039998021.905000000000655-1.487115359999734.591099999999642-2.34782279999672Z" fill="#fff"/>
      <path d="M472.750719779420251,328.08194616000219c-.097900000000664-.133456320001642-.19590000000062-.266698080002243-.293799999999464-.400154400000247-.329100000000835-.448323120001078-1.019000000000233-.56783304000237-1.501200000000608-.42557976000171-.66189999999915.195356879999963-1.132799999999406.859956480000619-1.132799999999406,1.596111839999139,0,.583710480001173.295000000000073,1.134378720000313.764299999998912,1.429291439999361.545000000000073.342545040002733,1.447500000000218.316154160002043,1.869700000001103-.258866639998814.097899999998845-.133349039999302.195899999998801-.266590799999904.293799999999464-.399939839999206.375200000000405-.510867359998883.375200000000405-1.030102560000159,0-1.540862639998522Z" fill="#fff"/>
      <path d="M472.132919779420263,351.846504480001386c-.205799999999726.226038959999642-.411599999999453.452185199996165-.617599999999584.678331439998146-.284900000000562.313043039999684-.395099999999729.650331360002383-.480900000000474,1.06432488000064-.208800000000338,1.007144639999751,1.012199999999211,1.980174240001361,1.730100000000675,1.080524160001005.255999999999403-.320874480001294.466599999999744-.591971040001226.564499999998588-1.012294080001084.07300000000032-.314544959999694.095600000000559-.654515280000851.142400000000634-.975175199999285.116299999999683-.794837519999419-.729199999999764-1.504816560000108-1.33849999999984-.835711199999423Z" fill="#fff"/>
      <path d="M486.699319779419966,340.866825600000084c-1.032900000000154,0-1.032900000000154,1.718089199999667,0,1.718089199999667,1.032800000000861,0,1.032800000000861-1.718089199999667,0-1.718089199999667Z" fill="#fff"/>
      <path d="M494.032619779420202,319.413722160001271c-1.205799999999726,0-2.036099999999351,1.763254080000479-1.035899999998946,2.682643679998364.119799999998577.10996200000227.23949999999968.219924000000901.359099999999671.329993280001872.420000000000073.385886160000155.933599999998478.385886160000155,1.353599999998551,0,.119599999999991-.110069280000971.239300000001094-.220031279999603.35910000000149-.329993280001872,1.000199999998586-.919389599997885.169899999998961-2.682643679998364-1.035900000000765-2.682643679998364Z" fill="#fff"/>
      <path d="M487.635919779420874,275.592095039999549l-1.21900000000096-.444568320001054c-.89929999999913-.32784767999874-1.829599999999118.532216080002399-1.829599999999118,1.495161360002385,0,.962945280001804.930299999999988,1.823116319999826,1.829599999999118,1.495161360000566l1.21900000000096-.444461040000533c.966599999999744-.352522080000199.966599999999744-1.748771279999346,0-2.101293360001364Z" fill="#fff"/>
      <path d="M493.365919779420437,463.294547040000907c-1.738100000000486,0-1.738100000000486,2.891625120000754,0,2.891625120000754,1.738199999999779,0,1.738199999999779-2.891625120000754,0-2.891625120000754Z" fill="#fff"/>
      <path d="M472.111719779421037,480.772068240001317c-.172800000000279-.673932960000457-.761000000000422-1.153689120003037-1.412400000001071-1.153689120003037-.516599999999016,0-1.003899999999703.300384000001941-1.264799999999013.778423680003471-.359700000000885.658591919998798-.190400000001318,1.347436799998832.22899999999936,1.904327279999052.049600000000282.066084480000427.099299999999857.131954399997994.14890000000014.197824319999199.398699999999735.529534080000303,1.375.529534080000303,1.773699999999735,0,.049600000000282-.065869920001205.099299999999857-.131739839998772.14890000000014-.197824319999199.338200000000143-.449181360001603.526799999999639-.943420319999859.37670000000071-1.529061839999486Z" fill="#fff"/>
      <path d="M414.396119779419678,493.364380080000046c-.267299999999523-.063295199999629-.534399999998641-.126483119998738-.801699999999983-.189885599998888-.655699999999342-.155234160001783-1.201900000000023.430621919997066-1.057199999999284,1.134164159999273.059100000000399.286652160000813.118099999999686.573304319999806.17699999999968.860063759999321.225300000000061,1.094148720001613,1.586199999999735,1.396892880000451,2.285200000000259.647220240000024.698800000000119-.749887199999648.416600000000471-2.210075279999728-.603300000000672-2.451562559999729Z" fill="#fff"/>
      <path d="M418.699319779419966,458.24616480000077c-1.788500000000568,0-1.788500000000568,2.975410799999736,0,2.975410799999736,1.788399999999456,0,1.788399999999456-2.975410799999736,0-2.975410799999736Z" fill="#fff"/>
      <path d="M445.365919779420437,451.324781040000744c-1.511399999999412,0-1.511399999999412,2.514321359998576,0,2.514321359998576s1.511399999999412-2.514321359998576,0-2.514321359998576Z" fill="#fff"/>
      <path d="M457.365919779420437,418.6770095999982c-1.209000000000742,0-1.209000000000742,2.011500000002343,0,2.011500000002343,1.209199999999328,0,1.209199999999328-2.011500000002343,0-2.011500000002343Z" fill="#fff"/>
      <path d="M481.861319779420228,429.588136559999839c-.166299999998955.102452400000402-.332599999999729.205012080003144-.499099999999089.307464479999908-.861800000000585.531143280002652-.861800000000585,1.929538080001294,0,2.460681360000308.16649999999936.102345120001701.332800000000134.205012080001325.499099999999089.307464479999908,1.089799999999741.671680080002261,2.498199999999997-.180230399999346,2.498199999999997-1.537858799998503,0-1.357628400002795-1.408400000000256-2.209324320001542-2.498199999999997-1.537751520001621Z" fill="#fff"/>
      <path d="M437.908119779420304,385.073158799999874c-.163099999999758-.108460080000441-.326199999999517-.217027439997764-.489299999999275-.325594800000545-.92660000000069-.616752719999567-2.145200000000841.184736160001194-2.145200000000841,1.320724080000218,0,1.136095200001364,1.218600000000151,1.937691360002646,2.145200000000841,1.320724080000218.163099999999758-.108460079998622.326199999999517-.217134720000104.489299999999275-.325594799998726.694100000000617-.461947680001686.694100000000617-1.528096320000259,0-1.990258560001166Z" fill="#fff"/>
      <path d="M417.365919779420437,104.958427439998559c-1.015400000000227,0-1.731900000000678,1.253781360001085-1.180500000000393,2.206856880000487.10109999999986.174973679999312.202400000000125.349947360002261.303499999999985.524921040003392.407199999999648.703971359998832,1.346800000001167.703971359998832,1.753899999999703,0l.30370000000039-.524921040003392c.551300000000992-.953075519999402-.164999999999054-2.206856880000487-1.180599999999686-2.206856880000487Z" fill="#fff"/>
      <path d="M388.032619779420202,117.643429200001265c-1.989999999999782,0-1.989999999999782,3.310660799999823,0,3.310660799999823s1.989999999999782-3.310660799999823,0-3.310660799999823Z" fill="#fff"/>
      <path d="M367.119819779420141,164.150274720001107c-.71559999999954-.211234320000585-1.433899999999994.153732239999954-1.788099999999758.807174719999239-.440699999999197.401549039999736-.431399999999485,1.292509440001595.024600000000646,1.676464559999658.202699999999822.372047040000325.496399999999994.66374136000195.92239999999947.789473519998865.831000000000131.245134800001324,1.717499999998836-.294054479996703,1.945999999999913-1.185443999998824.228699999999662-.891496800000823-.27390000000014-1.842533999999432-1.104900000000271-2.087668799998937Z" fill="#fff"/>
      <path d="M166.245795800277847,186.410552880000978c-.245899993788044.138820319998558-.60699998466589.123157440000796-.879899977771856.161670960000265-.803276043085134.113394960000733-.803276043085134,1.227819599998838,0,1.341000000000349.272899993105966.038406239998949.633999983983813.022957920000408.879899977771856.161778240000785.59509998496651.335893679997753,1.351899965848133-.076919760002056,1.351899965848133-.832278240002779,0-.755143919999682-.756799980881624-1.168171919998713-1.351899965848133-.832170959998621Z" fill="#fff"/>
      <path d="M143.982619779420929,154.343488079999588v.715235760002543c0,.069195600000967.099999999998545.069195600000967.099999999998545,0v-.715235760002543c0-.069088320000446-.099999999998545-.069088320000446-.099999999998545,0Z" fill="#fff"/>
      <path d="M84.36029786887957,299.177710320000187c-.805499979651358-.864354959998309-2.524399936228292-.292874400000073-2.400599939355743,1.066577760000655,0,0,0,.000643680001303.000099999997474.001180079998448-.03459999912593.061686000002737-.069178150100925.123479280000538-.103799997377791.185379840000678-.503799987272942.899864639999578.497299987437145,1.973737440001059,1.336099966247275,1.433260800000426.057699998542375-.037011600001279.115199997089803-.074130479997621.172799995634705-.111249360003058h.000721885395251c1.267478082567322.132919920004497,1.800178069110189-1.711115999994945.99467808945883-2.57514911999715Z" fill="#fff"/>
      <path d="M34.149499137311068,326.277925680000408c-.078399998019449-.601626239997131-.189879357891186-1.082991599998422-.438399988925084-1.636234559999139-.368999990678276-.82133568000063-1.654699958198762-.82133568000063-2.023699948877038,0-.248499993722362.553242960000716-.359999990905635,1.034608320002008-.438299988927611,1.636234559999139-.132599996650242,1.018409039999824.376999990476179,2.042182080000202,1.450199963364867,2.042182080000202,1.073099972891214,0,1.582799960015109-1.023773040000378,1.450199963364867-2.042182080000202Z" fill="#fff"/>
      <path d="M120.032619779420202,396.027519600000232c-.06452281006932,0-.06452281006932.107279999998354,0,.107279999998354.064477186671866,0,.064477186671866-.107279999998354,0-.107279999998354Z" fill="#fff"/>
      <path d="M112.032619779420202,424.270052400001077c-.50382259687467,0-.50382259687467.838178640000478,0,.838178640000478.503777377671213,0,.503777377671213-.838178640000478,0-.838178640000478Z" fill="#fff"/>
      <path d="M244.853819779420519,445.705132800001593c-.182000000000698-.710086319999391-.801699999999983-1.215267840001616-1.487900000000081-1.215267840001616-.544100000000981,0-1.057399999999689.316475999999966-1.332300000000032.819833759998801-.373999999999796.685090080000009-.20889999999963,1.429184160002478.241299999999683,2.005921440002567.101199999999153.1298087999985.202499999999418.259403039999597.303799999999683.389319120000437.365999999999985.468706319998091,1.20850000000064.468706319998091,1.574500000000626,0,.101199999999153-.129916080000839.202499999999418-.259510320001937.30370000000039-.389319120000437.362299999998868-.463986000002478.552999999999884-1.001566080001794.396899999999732-1.610487359999752Z" fill="#fff"/>
      <path d="M461.880719779419451,289.353222480001932c-18.732499999998254,19.95526007999797-37.388499999999112,39.991945679998025-56.027699999998731,60.0472979999995-.231299999999464.24899688000005.1270999999997.633488400000715.359199999998964.38524248000067,18.694300000001022-19.996133760001612,37.371399999999994-40.010290560003341,55.972300000001269-60.106409280000662.195399999998699-.211127039998246-.106999999999971-.535649040002681-.303800000001502-.326131199999509Z" fill="#fff"/>
      <path d="M510.880719779419451,46.900422480000998c-18.732499999998254,19.955260079999789-37.388499999999112,39.991945679999844-56.027699999998731,60.047298000001319-.231299999999464.248996879998231.1270999999997.633488399998896.359199999998964.385242479998851,18.694300000001022-19.996133759999793,37.371399999999994-40.010290560001522,55.972300000001269-60.106409280000662.195399999998699-.211127039998246-.106999999999971-.535649040000862-.303800000001502-.326131199999509Z" fill="#fff"/>
      <path d="M175.8806955568798,16.862022480001542c-18.732499526777247,19.955260079999789-37.388499055487046,39.991945679998025-56.027698584621248,60.0472979999995-.231299994156871.24899688000005.127099996789184.633488399998896.359199990925845.385242479998851,18.69429952774226-19.996133759997974,37.371422816235281-40.010290559997884,55.97229858602077-60.106409279997024.195399995063781-.211127040001884-.106999997296953-.535649040002681-.303799992325366-.326131200001328Z" fill="#fff"/>
      <path d="M37.880699043053028,155.253222480003387C19.148199516275781,175.208482559999538.492199987565982,195.245168159999594-18.146999541568221,215.300520480001069c-.231299994156871.24899688000005.127099996789184.633488400000715.359199990925845.38524248000067,18.69429952774226-19.996133760001612,37.371419330062054-40.010290560003341,55.97229858602077-60.106409279998843.195399995063781-.211127040000065-.106999997296953-.535649040002681-.303799992325366-.326131199999509Z" fill="#fff"/>
      <path d="M88.880697754684661,445.982022480000524c-18.732499526777247,19.955260079999789-37.388499055487046,39.991945679999844-56.027698584621248,60.0472979999995-.231299994156871.24899688000005.127099996789184.633488400000715.359199990925845.38524248000067,18.69429952774226-19.996133759999793,37.37142061843042-40.010290560001522,55.97229858602077-60.106409279998843.195399995063781-.211127040001884-.106999997296953-.535649040000862-.303799992325366-.326131200001328Z" fill="#fff"/>
      <path d="M431.937819779421261,349.22651231999771c-8.066800000000512,7.993969200004358-16.10070000000087,16.02055152000321-24.127300000000105,24.05464344000211-.099600000001374.099770400001944.054699999998775.25371720000112.154599999999846.154268640000737,8.050399999998263-8.010275759999786,16.093399999999747-16.027846559998579,24.103499999999258-24.078352320000704.084100000000035-.084536639997168-.046099999999569-.214559999998528-.130799999998999-.130559760002143Z" fill="#fff"/>
      <path d="M506.937819779421261,87.463312320000114c-8.066800000000512,7.99396920000072-16.10070000000087,16.020551519999572-24.127300000000105,24.054643439998472-.099600000001374.099770400001944.054699999998775.253717200002939.154599999999846.154268640002556,8.050399999998263-8.010275760001605,16.093399999999747-16.027846560000398,24.103499999999258-24.078352320002523.084100000000035-.084536639997168-.046099999999569-.214559999998528-.130799999998999-.130559759998505Z" fill="#fff"/>
      <path d="M513.937819779421261,486.54491231999782c-8.066800000000512,7.993969200002539-16.10070000000087,16.020551520001391-24.127300000000105,24.05464344000211-.099600000001374.099770400001944.054699999998775.25371720000112.154599999999846.154268639998918,8.050399999998263-8.010275759997967,16.093399999999747-16.027846559998579,24.103499999999258-24.078352319998885.084100000000035-.084536639998987-.046099999999569-.214559999998528-.130799999998999-.130559760002143Z" fill="#fff"/>
      <path d="M152.937796136466204,424.322512319999078c-8.066799796215491,7.993969200002539-16.100699593262107,16.020551520001391-24.127299390493135,24.054643440000291-.099599997483892.099770400001944.054699998618162.25371720000112.154599996094476.154268640002556,8.05039979662979-8.010275759999786,16.09339959344652-16.027846560002217,24.103523037352716-24.078352320002523.084076351617114-.084536639998987-.046123645093758-.214559999996709-.130823642954056-.130559760000324Z" fill="#fff"/>
      <path d="M165.937795808058581-2.651887680000073c-8.066799796215491,7.993969200002539-16.100699593262107,16.020551519999572-24.127299390493135,24.054643440000291-.099599997483892.099770400001944.054699998618162.25371720000112.154599996094476.154268640000737,8.05039979662979-8.010275759999786,16.09339959344652-16.027846560000398,24.103523365760338-24.078352320000704.084076023209491-.084536640000806-.046123973501381-.214559999998528-.130823971361679-.130559760000324Z" fill="#fff"/>
      <path d="M10.437799736318993,222.099712320001345c-8.066799796215491,7.993969199998901-16.100699593262107,16.020551519997753-24.127299390493135,24.054643439998472-.099599997483892.099770400001944.054699998618162.253717199999301.154599996094476.154268640000737,8.05039979662979-8.010275759999786,16.09339959344652-16.027846560000398,24.103519437499926-24.078352320002523.084079951469903-.084536639997168-.046120045240968-.214559999998528-.130820043101266-.130559759996686Z" fill="#fff"/>
      <path d="M293.271119779419678-4.797487679999904c-8.066799999998693,7.993969199998901-16.100699999999051,16.020551519997753-24.127300000000105,24.054643440000291-.099599999999555.099770400001944.054700000000594.25371720000112.154700000000958.154268639998918,8.05029999999897-8.010275759996148,16.093300000000454-16.027846559998579,24.103399999999965-24.078352319998885.084199999999328-.084536640000806-.046000000000276-.214560000000347-.130800000000818-.130559760000324Z" fill="#fff"/>
    </g>
  </g>
</svg>